<svg xmlns="http://www.w3.org/2000/svg" viewBox="0 0 166.76 166.76"><title>icon-instagram</title><g id="Calque_2" data-name="Calque 2"><g id="ELEMENTS"><path d="M99.18,83.27a15.43,15.43,0,1,1-15.4-15.46A15.4,15.4,0,0,1,99.18,83.27Z" fill="#fff"/><path d="M102.88,43.57h-39A20.17,20.17,0,0,0,43.69,63.7v39.07A20.22,20.22,0,0,0,63.87,123h39a20.22,20.22,0,0,0,20.19-20.19V63.7A20.17,20.17,0,0,0,102.88,43.57Zm-19.1,63.76A24.1,24.1,0,1,1,107.22,78a5.71,5.71,0,0,0-3.71,5.36,5.62,5.62,0,0,0,3.71,5.3A24.09,24.09,0,0,1,83.78,107.33Z" fill="#fff"/><path d="M83.38,0a83.38,83.38,0,1,0,83.38,83.38A83.34,83.34,0,0,0,83.38,0Zm48.88,102.77a29.4,29.4,0,0,1-29.38,29.37h-39A29.4,29.4,0,0,1,34.5,102.77V63.7A29.41,29.41,0,0,1,63.87,34.33h39A29.41,29.41,0,0,1,132.26,63.7Z" fill="#fff"/></g></g></svg>